<?xml version="1.0" encoding="UTF-8"?>
<svg id="Layer_1" data-name="Layer 1" xmlns="http://www.w3.org/2000/svg" viewBox="0 0 2000 1346.01">
  <defs>
    <style>
      .cls-1 {
        fill: #6c8cc7;
      }

      .cls-1, .cls-2, .cls-3, .cls-4, .cls-5, .cls-6, .cls-7, .cls-8 {
        stroke-width: 0px;
      }

      .cls-2 {
        fill: #374fa1;
      }

      .cls-3 {
        fill: #6c8cc6;
      }

      .cls-3, .cls-7 {
        fill-rule: evenodd;
      }

      .cls-4 {
        fill: #ec2026;
      }

      .cls-5 {
        fill: #eb2329;
      }

      .cls-6 {
        fill: #354d9e;
      }

      .cls-7 {
        fill: #354fa2;
      }

      .cls-8 {
        fill: #841719;
      }
    </style>
  </defs>
  <g>
    <g>
      <path class="cls-1" d="M1622.15,549.23l-300.54-35.45,79.85-230.04,220.69,265.5ZM1339.06,503.09l252.77,29.82-185.61-223.3-67.16,193.48Z"/>
      <path class="cls-1" d="M968.95,566.47c-2.52,0-4.85-1.42-5.92-3.7l-74.67-158.51c-.92-1.95-.76-4.22.44-6.04l110.86-168.75c1.62-2.47,4.79-3.54,7.64-2.57,2.86.98,4.65,3.73,4.32,6.65l-36.19,327.27c-.31,2.83-2.54,5.11-5.43,5.56-.36.06-.71.09-1.05.09M901.69,402.13l63.32,134.44,30.7-277.55-94.02,143.12Z"/>
      <path class="cls-1" d="M1127.13,461.82l-131.27-232.24,218.72-81.89-87.45,314.13ZM1014.45,236.18l108.54,192.04,72.3-259.74-180.84,67.71Z"/>
      <path class="cls-1" d="M1406.38,306.23l-217.94-151.85,317.66-52.29-99.72,204.14ZM1221.43,161.78l179.87,125.33,82.31-168.48-262.18,43.15Z"/>
      <path class="cls-1" d="M1393.25,303.6l98.89-202.43,291.89,180.59-390.78,21.84ZM1497.58,119.55l-83.14,170.19,328.55-18.37-245.41-151.83Z"/>
      <path class="cls-3" d="M1367.42,732.4l49.69,147.42c1.09,3.23,4.8,5.03,8.28,4.02,3.48-1.01,5.42-4.44,4.33-7.67l-49.69-147.41c-1.08-3.23-4.8-5.03-8.28-4.02-3.47,1.01-5.42,4.45-4.33,7.67Z"/>
      <path class="cls-3" d="M1162.55,603.49l208.35,132.57c3.01,1.91,7.12,1.2,9.18-1.58,2.06-2.79,1.29-6.6-1.71-8.51l-208.35-132.57c-3.01-1.91-7.12-1.2-9.18,1.59-2.06,2.79-1.29,6.6,1.71,8.51Z"/>
      <path class="cls-3" d="M1370.64,735.99l150.71,73.72c3.22,1.58,7.23.43,8.92-2.56,1.7-2.99.47-6.7-2.75-8.27l-150.71-73.72c-3.22-1.58-7.22-.43-8.92,2.56-1.7,2.99-.46,6.7,2.76,8.27Z"/>
      <path class="cls-3" d="M1427.51,882.8l100.8-73.7c2.87-2.09,3.36-5.95,1.1-8.6-2.26-2.65-6.41-3.11-9.27-1.02l-100.8,73.7c-2.86,2.09-3.35,5.95-1.09,8.6,2.25,2.65,6.41,3.11,9.27,1.02Z"/>
    </g>
    <g>
      <path class="cls-2" d="M1882.77,556h-.2l-275.79-8.6c-2.29-.07-4.37-1.3-5.48-3.24-1.11-1.95-1.09-4.31.05-6.23l156.52-264.5c1.23-2.09,3.55-3.33,6.04-3.16,2.46.14,4.64,1.63,5.6,3.84l119.27,273.1c.87,1.99.63,4.27-.63,6.05-1.22,1.73-3.22,2.75-5.37,2.75M1618.05,535.08l254.75,7.94-110.18-252.27-144.57,244.33Z"/>
      <path class="cls-2" d="M1748.41,684.28c-1.66,0-3.32-.61-4.6-1.85l-141.43-136.88c-1.89-1.83-2.44-4.61-1.38-6.99,1.06-2.39,3.51-3.91,6.2-3.82l275.78,8.6c2.6.08,4.91,1.66,5.86,4.02.95,2.36.36,5.04-1.51,6.82l-134.36,128.28c-1.26,1.21-2.92,1.82-4.56,1.82M1623.28,547.91l125.16,121.14,118.9-113.53-244.07-7.61Z"/>
      <path class="cls-2" d="M1584.93,736.9c-1.47,0-2.93-.49-4.1-1.42-1.72-1.35-2.62-3.48-2.36-5.62l22.06-189.51c.28-2.41,1.96-4.46,4.32-5.26,2.36-.8,4.97-.23,6.75,1.49l141.43,136.89c1.61,1.55,2.27,3.8,1.74,5.94-.52,2.14-2.15,3.86-4.29,4.55l-163.48,52.62c-.67.21-1.36.32-2.05.32M1611.95,554.8l-19.41,166.65,143.77-46.27-124.36-120.38Z"/>
      <path class="cls-7" d="M1417.63,880.95l71.44,120.09c1.76,2.96,5.79,4.04,8.98,2.41,3.19-1.63,4.35-5.36,2.6-8.32l-71.44-120.09c-1.76-2.96-5.78-4.04-8.97-2.41-3.19,1.63-4.35,5.36-2.6,8.32Z"/>
      <path class="cls-7" d="M1323.83,509.52l43.18,222.14c.65,3.33,4.08,5.54,7.67,4.94,3.59-.6,5.98-3.79,5.33-7.11l-43.18-222.14c-.65-3.33-4.08-5.54-7.68-4.94-3.59.6-5.97,3.79-5.32,7.11Z"/>
      <path class="cls-7" d="M1373.73,736.7h211.94c3.65,0,6.61-2.74,6.61-6.12s-2.96-6.12-6.61-6.12h-211.94c-3.65,0-6.61,2.74-6.61,6.12s2.96,6.12,6.61,6.12Z"/>
      <path class="cls-7" d="M1325.81,512.89l255.33,222.14c2.66,2.31,6.84,2.19,9.34-.27,2.5-2.46,2.36-6.34-.3-8.65l-255.33-222.14c-2.66-2.31-6.84-2.19-9.33.27-2.5,2.46-2.36,6.35.29,8.65Z"/>
      <path class="cls-7" d="M1517.9,803.43l-29.58,193.03c-.52,3.35,2,6.45,5.61,6.92,3.61.48,6.96-1.86,7.47-5.2l29.58-193.03c.51-3.35-2-6.45-5.61-6.92-3.61-.48-6.96,1.86-7.46,5.2Z"/>
      <path class="cls-7" d="M1579.69,727.3l-60.5,73.27c-2.22,2.68-1.66,6.53,1.23,8.58,2.89,2.05,7.04,1.54,9.26-1.14l60.5-73.27c2.21-2.68,1.66-6.53-1.23-8.58-2.9-2.05-7.05-1.54-9.26,1.14Z"/>
    </g>
    <g>
      <path class="cls-6" d="M1161.47,607.73l-45.65-172.21,230.79,71.31-185.14,100.91ZM1134.31,454.51l35.55,134.13,144.2-78.59-179.75-55.54Z"/>
      <path class="cls-6" d="M1174.56,606.36l-221.07-42.75,175.44-129.38,45.63,172.14ZM984.42,556.68l172.35,33.33-35.58-134.2-136.77,100.87Z"/>
      <path class="cls-2" d="M1334.45,516.35l-225.87-69.78,306.76-163.23-80.9,233.01ZM1141.54,443.47l184.66,57.06,66.14-190.52-250.8,133.46Z"/>
    </g>
    <g>
      <g>
        <path class="cls-4" d="M1744.88,702.28c-13.18,0-23.9-10.91-23.9-24.33s10.72-24.32,23.9-24.32,23.89,10.91,23.89,24.32-10.72,24.33-23.89,24.33"/>
        <path class="cls-4" d="M1886.17,512.92c-17.81,0-32.32,14.76-32.32,32.91s14.5,32.9,32.32,32.9,32.33-14.76,32.33-32.9-14.5-32.91-32.33-32.91"/>
        <path class="cls-4" d="M1606.21,514.59c-13.97,0-25.33,11.57-25.33,25.79s11.36,25.79,25.33,25.79,25.33-11.57,25.33-25.79-11.36-25.79-25.33-25.79"/>
        <path class="cls-4" d="M1122.18,464.73c-10.68,0-19.37-8.84-19.37-19.71s8.69-19.72,19.37-19.72,19.36,8.84,19.36,19.72-8.68,19.71-19.36,19.71"/>
        <path class="cls-4" d="M965.25,541.9c-9.88,0-17.91,8.18-17.91,18.24s8.04,18.23,17.91,18.23,17.91-8.18,17.91-18.23-8.04-18.24-17.91-18.24"/>
        <path class="cls-4" d="M894,381.7c-10.8,0-19.57,8.94-19.57,19.92s8.77,19.92,19.57,19.92,19.56-8.94,19.56-19.92-8.77-19.92-19.56-19.92"/>
        <path class="cls-4" d="M1006,203.92c-15.68,0-28.45,13-28.45,28.96s12.76,28.96,28.45,28.96,28.44-13,28.44-28.96-12.75-28.96-28.44-28.96"/>
        <path class="cls-4" d="M1204.1,133.26c-13.44,0-24.39,11.13-24.39,24.82s10.94,24.83,24.39,24.83,24.38-11.14,24.38-24.83-10.94-24.82-24.38-24.82"/>
        <path class="cls-4" d="M1494.42,90.49c-10.77,0-19.51,8.91-19.51,19.87s8.75,19.87,19.51,19.87,19.52-8.92,19.52-19.87-8.76-19.87-19.52-19.87"/>
        <path class="cls-4" d="M1765.82,249.03c-14.92,0-27.05,12.35-27.05,27.54s12.13,27.53,27.05,27.53,27.04-12.35,27.04-27.53-12.13-27.54-27.04-27.54"/>
        <path class="cls-4" d="M1376.46,705.15c-13.77,0-24.97,11.4-24.97,25.42s11.21,25.42,24.97,25.42,24.97-11.4,24.97-25.42-11.2-25.42-24.97-25.42"/>
        <path class="cls-4" d="M1581.04,712.87c-9.83,0-17.82,8.14-17.82,18.15s7.99,18.15,17.82,18.15,17.83-8.15,17.83-18.15-8-18.15-17.83-18.15"/>
        <path class="cls-4" d="M1326.52,479.12c-15.87,0-28.79,13.15-28.79,29.31s12.91,29.31,28.79,29.31,28.79-13.15,28.79-29.31-12.91-29.31-28.79-29.31"/>
        <path class="cls-4" d="M1153.54,580.3c-9.83,0-17.83,8.14-17.83,18.15s7.99,18.15,17.83,18.15,17.82-8.14,17.82-18.15-7.99-18.15-17.82-18.15"/>
        <path class="cls-4" d="M1425.62,860.04c-9.73,0-17.64,8.05-17.64,17.95s7.91,17.95,17.64,17.95,17.63-8.05,17.63-17.95-7.91-17.95-17.63-17.95"/>
        <path class="cls-4" d="M1494.08,1026.74c-15.52,0-28.15-12.86-28.15-28.66s12.63-28.66,28.15-28.66,28.14,12.86,28.14,28.66-12.62,28.66-28.14,28.66"/>
        <path class="cls-4" d="M1522.23,791.54c-6.58,0-11.92,5.43-11.92,12.13s5.34,12.13,11.92,12.13,11.91-5.42,11.91-12.13-5.33-12.13-11.91-12.13"/>
      </g>
      <path class="cls-4" d="M1402.6,326.27c-16.02,0-29.06-13.28-29.06-29.59s13.04-29.6,29.06-29.6,29.07,13.27,29.07,29.6-13.04,29.59-29.07,29.59"/>
    </g>
  </g>
  <path class="cls-5" d="M410.43,1044.85c3.21,9.84,3.85,18.73,3.85,28.28v154.11c0,9.55-.64,18.44-3.85,28.28h67.93c-3.21-9.84-3.85-18.73-3.85-28.28v-154.11c0-9.55.64-18.44,3.85-28.28h-67.93Z"/>
  <path class="cls-5" d="M718.16,1255.52v-182.38c0-9.54.64-18.42,3.85-28.28h-35.23c3.21,9.87,3.85,18.75,3.85,28.28v138.96h-.64l-103.26-167.25h-75.31c3.21,9.87,3.85,18.75,3.85,28.28v154.09c0,9.54-.64,18.42-3.85,28.29h35.23c-3.21-9.87-3.85-18.75-3.85-28.29v-142.25h.64l105.18,170.54h69.54Z"/>
  <path class="cls-8" d="M811.78,1071.81h70.25c7.7,0,10.58,3.62,10.58,14.17v35.58c0,10.54-2.89,14.17-10.58,14.17h-70.25v-63.91ZM811.78,1162.68h70.25c7.7,0,10.58,3.62,10.58,14.17v37.56c0,10.54-2.89,14.17-10.58,14.17h-70.25v-65.89ZM751.54,1227.25c0,9.54-.64,18.41-3.85,28.27h162.53c25.63,0,40.69-13.15,40.69-40.79v-34.26c0-23.71-9.29-30.28-45.49-31.93v-.99c36.2-1.64,45.49-8.22,45.49-31.93v-29.98c0-27.64-15.06-40.79-40.69-40.79h-162.53c3.21,9.86,3.85,18.74,3.85,28.27v154.12Z"/>
  <path class="cls-8" d="M1043.25,1071.81h70.25c7.7,0,10.58,3.62,10.58,14.17v35.58c0,10.54-2.89,14.17-10.58,14.17h-70.25v-63.91ZM1043.25,1162.68h44.91l35.28,92.84h68.57c-6.41-5.89-11.22-13.46-14.74-22.35l-26.59-69.5c24.35-3.62,31.72-16.44,31.72-35.19v-42.83c0-27.64-15.06-40.79-40.69-40.79h-162.53c3.2,9.86,3.85,18.74,3.85,28.27v154.11c0,9.55-.64,18.45-3.85,28.28h67.92c-3.21-9.84-3.85-18.73-3.85-28.28v-64.56Z"/>
  <path class="cls-8" d="M1264.48,1168.64l34.3-79.7,34.94,79.7h-69.24ZM1345.58,1195.6l10.9,25.02c6.09,14.17,8.66,23.38,8.66,29.96,0,1.97-.33,3.62-.65,4.94h75.65c-7.05-6.58-13.15-20.07-21.8-39.82l-75.65-170.85h-66.99l8.65,13.79-68.27,156.4c-8.01,18.43-14.1,29.62-21.8,40.48h39.43c0-10.86,2.24-20.41,5.45-28.31l13.14-31.61h93.28Z"/>
  <path class="cls-8" d="M1455.25,1044.85c3.21,9.84,3.85,18.73,3.85,28.28v154.11c0,9.55-.65,18.44-3.85,28.28h67.93c-3.21-9.84-3.85-18.73-3.85-28.28v-154.11c0-9.55.64-18.44,3.85-28.28h-67.93Z"/>
  <path class="cls-8" d="M1762.98,1255.52v-182.38c0-9.54.65-18.42,3.85-28.28h-35.23c3.21,9.87,3.85,18.75,3.85,28.28v138.96h-.64l-103.26-167.25h-75.31c3.2,9.87,3.85,18.75,3.85,28.28v154.09c0,9.54-.64,18.42-3.85,28.29h35.23c-3.21-9.87-3.85-18.75-3.85-28.29v-142.25h.65l105.18,170.54h69.54Z"/>
  <path class="cls-5" d="M289.69,1255.51l100.49-271.11c7.21-19.26,14.42-32.6,24.52-44.89h-62.02c.96,3.44,1.92,6.38,1.92,10.31,0,9.88-3.37,20.75-11.06,41.99l-69.23,195.61-69.23-189.68c-7.21-19.76-13.46-34.58-13.46-46.43,0-4.92.48-7.86.96-11.79h-111.06c8.17,10.8,14.42,21.67,20.19,36.49l105.77,279.5h82.22Z"/>
</svg>