<?xml version="1.0" encoding="UTF-8"?>
<svg id="Layer_1" data-name="Layer 1" xmlns="http://www.w3.org/2000/svg" viewBox="0 0 1486.87 1346.01">
  <defs>
    <style>
      .cls-1 {
        fill: #6c8cc7;
      }

      .cls-1, .cls-2, .cls-3, .cls-4, .cls-5, .cls-6 {
        stroke-width: 0px;
      }

      .cls-2 {
        fill: #374fa1;
      }

      .cls-3 {
        fill: #6c8cc6;
      }

      .cls-3, .cls-6 {
        fill-rule: evenodd;
      }

      .cls-4 {
        fill: #ec2026;
      }

      .cls-5 {
        fill: #354d9e;
      }

      .cls-6 {
        fill: #354fa2;
      }
    </style>
  </defs>
  <g>
    <path class="cls-1" d="M1042.2,660.58l-397.86-46.94,105.71-304.53,292.15,351.47ZM667.45,599.5l334.62,39.48-245.71-295.6-88.91,256.13Z"/>
    <path class="cls-1" d="M177.5,683.41c-3.33,0-6.42-1.88-7.83-4.9l-98.84-209.84c-1.22-2.59-1.01-5.59.58-7.99l146.75-223.39c2.15-3.27,6.34-4.68,10.12-3.4,3.79,1.29,6.16,4.93,5.72,8.8l-47.91,433.24c-.41,3.75-3.36,6.76-7.19,7.36-.47.08-.94.12-1.39.12M88.46,465.84l83.82,177.97,40.64-367.43-124.46,189.46Z"/>
    <path class="cls-1" d="M386.89,544.87L213.1,237.43l289.55-108.41-115.76,415.85ZM237.73,246.16l143.68,254.22,95.71-343.85-239.4,89.63Z"/>
    <path class="cls-1" d="M756.57,338.9l-288.51-201.02,420.52-69.22-132.01,270.25ZM511.73,147.68l238.11,165.91,108.96-223.04-347.07,57.12Z"/>
    <path class="cls-1" d="M739.18,335.42l130.91-267.98,386.41,239.06-517.31,28.91ZM877.29,91.76l-110.06,225.31,434.94-24.31-324.87-200.99Z"/>
    <path class="cls-3" d="M704.99,903.06l65.78,195.15c1.44,4.27,6.35,6.65,10.96,5.32,4.61-1.33,7.18-5.88,5.74-10.15l-65.78-195.15c-1.43-4.27-6.35-6.65-10.96-5.32-4.6,1.33-7.17,5.88-5.74,10.15Z"/>
    <path class="cls-3" d="M433.78,732.42l275.82,175.5c3.98,2.53,9.43,1.59,12.15-2.1,2.73-3.69,1.71-8.74-2.26-11.27l-275.82-175.5c-3.98-2.53-9.43-1.59-12.15,2.1s-1.71,8.74,2.26,11.26Z"/>
    <path class="cls-3" d="M709.26,907.81l199.51,97.59c4.27,2.09,9.57.57,11.81-3.39,2.26-3.96.62-8.86-3.65-10.95l-199.52-97.59c-4.27-2.09-9.56-.57-11.81,3.39-2.25,3.96-.61,8.86,3.65,10.95Z"/>
    <path class="cls-3" d="M784.54,1102.16l133.44-97.56c3.8-2.77,4.44-7.87,1.45-11.38-2.99-3.51-8.49-4.12-12.28-1.34l-133.44,97.56c-3.79,2.77-4.43,7.87-1.44,11.38,2.98,3.51,8.49,4.11,12.28,1.34Z"/>
  </g>
  <g>
    <path class="cls-2" d="M1387.22,669.54h-.27l-365.1-11.39c-3.03-.09-5.78-1.73-7.26-4.29-1.47-2.58-1.44-5.71.06-8.25l207.2-350.15c1.63-2.76,4.7-4.41,7.99-4.19,3.26.18,6.14,2.16,7.41,5.08l157.89,361.54c1.15,2.64.84,5.65-.83,8.01-1.61,2.29-4.27,3.64-7.11,3.64M1036.77,641.85l337.24,10.51-145.85-333.95-191.38,323.44Z"/>
    <path class="cls-2" d="M1209.35,839.37c-2.2,0-4.4-.81-6.09-2.45l-187.23-181.21c-2.5-2.43-3.23-6.1-1.83-9.25,1.41-3.16,4.65-5.17,8.2-5.06l365.09,11.39c3.45.11,6.5,2.2,7.76,5.32,1.26,3.13.47,6.68-1.99,9.03l-177.87,169.82c-1.67,1.6-3.86,2.41-6.04,2.41M1043.71,658.83l165.69,160.37,157.4-150.29-323.1-10.08Z"/>
    <path class="cls-2" d="M992.93,909.03c-1.94,0-3.87-.65-5.43-1.88-2.28-1.79-3.46-4.6-3.13-7.44l29.2-250.87c.37-3.2,2.6-5.9,5.72-6.97,3.12-1.06,6.58-.3,8.94,1.97l187.22,181.21c2.12,2.06,3,5.03,2.31,7.87-.69,2.83-2.84,5.11-5.68,6.02l-216.42,69.66c-.89.28-1.8.43-2.72.43M1028.7,667.95l-25.69,220.62,190.33-61.25-164.64-159.37Z"/>
    <path class="cls-6" d="M771.46,1099.71l94.57,158.98c2.33,3.92,7.66,5.34,11.88,3.18,4.22-2.16,5.76-7.09,3.44-11.01l-94.58-158.98c-2.33-3.92-7.65-5.34-11.87-3.18-4.22,2.16-5.76,7.09-3.44,11.01Z"/>
    <path class="cls-6" d="M647.29,608.01l57.16,294.07c.86,4.4,5.4,7.33,10.15,6.54,4.76-.79,7.91-5.01,7.06-9.41l-57.16-294.07c-.86-4.41-5.4-7.33-10.16-6.54-4.75.79-7.9,5.01-7.05,9.41Z"/>
    <path class="cls-6" d="M713.34,908.75h280.57c4.83,0,8.74-3.63,8.74-8.11s-3.92-8.11-8.74-8.11h-280.57c-4.83,0-8.74,3.63-8.74,8.11s3.92,8.11,8.74,8.11Z"/>
    <path class="cls-6" d="M649.9,612.48l338.01,294.08c3.52,3.06,9.06,2.9,12.36-.36,3.31-3.26,3.13-8.4-.39-11.46l-338.01-294.07c-3.52-3.06-9.06-2.9-12.36.36-3.31,3.26-3.13,8.4.38,11.46Z"/>
    <path class="cls-6" d="M904.19,997.09l-39.16,255.54c-.68,4.43,2.65,8.54,7.42,9.16,4.78.63,9.21-2.46,9.89-6.88l39.16-255.54c.67-4.43-2.65-8.54-7.43-9.17-4.77-.63-9.21,2.46-9.88,6.89Z"/>
    <path class="cls-6" d="M985.99,896.31l-80.09,97c-2.94,3.55-2.2,8.64,1.63,11.36,3.83,2.72,9.32,2.04,12.26-1.51l80.09-97c2.93-3.55,2.2-8.64-1.63-11.36-3.84-2.72-9.33-2.04-12.26,1.51Z"/>
  </g>
  <g>
    <path class="cls-5" d="M432.35,738.03l-60.43-227.98,305.52,94.4-245.09,133.58ZM396.39,535.19l47.06,177.56,190.89-104.04-237.96-73.52Z"/>
    <path class="cls-5" d="M449.68,736.21l-292.65-56.6,232.25-171.28,60.4,227.88ZM197.98,670.45l228.16,44.12-47.1-177.66-181.06,133.54Z"/>
    <path class="cls-2" d="M661.35,617.05l-299.01-92.38,406.1-216.09-107.09,308.46ZM405.97,520.57l244.46,75.53,87.56-252.21-332.02,176.68Z"/>
  </g>
  <g>
    <g>
      <path class="cls-4" d="M1204.68,863.2c-17.45,0-31.63-14.45-31.63-32.21s14.19-32.2,31.63-32.2,31.62,14.44,31.62,32.2-14.18,32.21-31.62,32.21"/>
      <path class="cls-4" d="M1391.71,612.51c-23.58,0-42.78,19.54-42.78,43.56s19.2,43.56,42.78,43.56,42.8-19.53,42.8-43.56-19.2-43.56-42.8-43.56"/>
      <path class="cls-4" d="M1021.1,614.73c-18.49,0-33.53,15.31-33.53,34.14s15.04,34.14,33.53,34.14,33.53-15.32,33.53-34.14-15.04-34.14-33.53-34.14"/>
      <path class="cls-4" d="M380.34,548.72c-14.13,0-25.64-11.7-25.64-26.09s11.51-26.1,25.64-26.1,25.62,11.71,25.62,26.1-11.49,26.09-25.62,26.09"/>
      <path class="cls-4" d="M172.59,650.88c-13.08,0-23.71,10.83-23.71,24.15s10.64,24.14,23.71,24.14,23.71-10.83,23.71-24.14-10.64-24.15-23.71-24.15"/>
      <path class="cls-4" d="M78.27,438.81c-14.29,0-25.91,11.83-25.91,26.38s11.61,26.38,25.91,26.38,25.9-11.84,25.9-26.38-11.61-26.38-25.9-26.38"/>
      <path class="cls-4" d="M226.53,203.46c-20.76,0-37.66,17.21-37.66,38.34s16.9,38.33,37.66,38.33,37.65-17.21,37.65-38.33-16.88-38.34-37.65-38.34"/>
      <path class="cls-4" d="M488.78,109.91c-17.8,0-32.28,14.74-32.28,32.86s14.49,32.87,32.28,32.87,32.27-14.74,32.27-32.87-14.48-32.86-32.27-32.86"/>
      <path class="cls-4" d="M873.12,53.3c-14.25,0-25.83,11.8-25.83,26.3s11.58,26.31,25.83,26.31,25.84-11.81,25.84-26.31-11.6-26.3-25.84-26.3"/>
      <path class="cls-4" d="M1232.4,263.17c-19.75,0-35.81,16.35-35.81,36.46s16.06,36.45,35.81,36.45,35.8-16.35,35.8-36.45-16.06-36.46-35.8-36.46"/>
      <path class="cls-4" d="M716.96,866.99c-18.22,0-33.06,15.1-33.06,33.65s14.84,33.65,33.06,33.65,33.06-15.1,33.06-33.65-14.83-33.65-33.06-33.65"/>
      <path class="cls-4" d="M987.78,877.21c-13.02,0-23.6,10.77-23.6,24.02s10.58,24.03,23.6,24.03,23.6-10.78,23.6-24.03-10.59-24.02-23.6-24.02"/>
      <path class="cls-4" d="M650.84,567.77c-21.01,0-38.11,17.41-38.11,38.8s17.1,38.8,38.11,38.8,38.11-17.41,38.11-38.8-17.1-38.8-38.11-38.8"/>
      <path class="cls-4" d="M421.86,701.71c-13.02,0-23.6,10.78-23.6,24.03s10.58,24.02,23.6,24.02,23.59-10.78,23.59-24.02-10.58-24.03-23.59-24.03"/>
      <path class="cls-4" d="M782.03,1072.04c-12.87,0-23.35,10.66-23.35,23.76s10.47,23.76,23.35,23.76,23.34-10.66,23.34-23.76-10.47-23.76-23.34-23.76"/>
      <path class="cls-4" d="M872.66,1292.71c-20.54,0-37.26-17.02-37.26-37.94s16.72-37.94,37.26-37.94,37.26,17.02,37.26,37.94-16.71,37.94-37.26,37.94"/>
      <path class="cls-4" d="M909.93,981.35c-8.71,0-15.77,7.19-15.77,16.05s7.07,16.05,15.77,16.05,15.76-7.18,15.76-16.05-7.06-16.05-15.76-16.05"/>
    </g>
    <path class="cls-4" d="M751.56,365.42c-21.21,0-38.47-17.58-38.47-39.18s17.26-39.18,38.47-39.18,38.48,17.57,38.48,39.18-17.26,39.18-38.48,39.18"/>
  </g>
</svg>